<svg width="1214" height="753" version="1.1" xmlns="http://www.w3.org/2000/svg">
  <g>
    <clipPath id="Form1-clipPath-1">
      <rect id="Form1-innerClipRectangle-2" x="0.75" y="0.75" width="1212.5" height="751.5" />
    </clipPath>
    <rect id="Form1-0" x="0" y="0" width="1214" height="753" stroke="rgb(0, 0, 0)" stroke-width="1.5" fill="rgb(255, 255, 255)" />
    <g x="0" y="0" clip-path="url(#Form1-clipPath-1)">
      <g transform="translate(85, 127)">
        <clipPath id="panel1-clipPath-4">
          <rect id="panel1-innerClipRectangle-5" x="0.75" y="0.75" width="398.5" height="198.5" />
        </clipPath>
        <rect id="panel1-3" x="0" y="0" width="400" height="200" stroke="rgb(0, 0, 0)" stroke-width="1.5" fill="rgb(255, 255, 255)" />
        <g x="0" y="0" clip-path="url(#panel1-clipPath-4)">
          <g transform="translate(52, 67)">
            <clipPath id="panel2-clipPath-7">
              <rect id="panel2-innerClipRectangle-8" x="0.75" y="0.75" width="376.5" height="164.5" />
            </clipPath>
            <rect id="panel2-6" x="0" y="0" width="378" height="166" stroke="rgb(0, 0, 0)" stroke-width="1.5" fill="rgb(255, 255, 255)" />
            <g x="0" y="0" clip-path="url(#panel2-clipPath-7)" />
          </g>
        </g>
      </g>
      <g transform="translate(509, 127)">
        <clipPath id="panel3-clipPath-10">
          <rect id="panel3-innerClipRectangle-11" x="0.75" y="0.75" width="255.5" height="175.5" />
        </clipPath>
        <rect id="panel3-9" x="0" y="0" width="257" height="177" stroke="rgb(0, 0, 0)" stroke-width="1.5" fill="rgb(255, 255, 255)" />
        <g x="0" y="0" clip-path="url(#panel3-clipPath-10)">
          <g transform="translate(0, 0)">
            <clipPath id="label1-13">
              <rect id="label1-clipPath-14" x="1.5" y="1.5" width="257" height="177" />
            </clipPath>
            <text id="label1-12" x="128.5" y="92" text-anchor="middle" dominant-baseline="middle" font-family="Segoe UI" font-size="25" fill="rgb(0, 0, 0)">label1</text>
          </g>
        </g>
      </g>
      <g transform="translate(307, 41)">
        <clipPath id="panel4-clipPath-16">
          <rect id="panel4-innerClipRectangle-17" x="0.75" y="0.75" width="255.5" height="30.5" />
        </clipPath>
        <rect id="panel4-15" x="0" y="0" width="257" height="32" stroke="rgb(0, 0, 0)" stroke-width="1.5" fill="rgb(255, 255, 255)" />
        <g x="0" y="0" clip-path="url(#panel4-clipPath-16)" />
      </g>
      <g transform="translate(470, 383)">
        <clipPath id="button1-clipPath-19">
          <rect id="button1-innerClipRectangle-20" x="0.75" y="0.75" width="330.5" height="70.5" />
        </clipPath>
        <rect id="button1-18" x="0" y="0" width="332" height="72" stroke="rgb(0, 0, 0)" stroke-width="1.5" fill="rgb(255, 255, 255)" />
        <text id="button1-text-21" x="166" y="39.5" text-anchor="middle" dominant-baseline="middle" font-family="Segoe UI" font-size="25" fill="rgb(0, 0, 0)">button1</text>
      </g>
      <g transform="translate(109, 383)">
        <clipPath id="button2-clipPath-23">
          <rect id="button2-innerClipRectangle-24" x="0.75" y="0.75" width="330.5" height="70.5" />
        </clipPath>
        <rect id="button2-22" x="0" y="0" width="332" height="72" stroke="rgb(0, 0, 0)" stroke-width="1.5" fill="rgb(255, 255, 255)" />
        <text id="button2-text-25" x="166" y="39.5" text-anchor="middle" dominant-baseline="middle" font-family="Segoe UI" font-size="25" fill="rgb(0, 0, 0)">button1</text>
      </g>
      <g transform="translate(393, 575)">
        <clipPath id="checkBox1-clipPath-27">
          <rect id="checkBox1-innerClipRectangle-28" x="0.75" y="0.75" width="157.5" height="34.5" />
        </clipPath>
        <rect id="checkBox1-26" x="0" y="0" width="159" height="36" stroke="rgb(0, 0, 0)" stroke-width="1.5" fill="rgb(255, 255, 255)" />
        <g x="0" y="0" clip-path="url(#checkBox1-clipPath-27)" />
      </g>
      <g transform="translate(596, 575)">
        <clipPath id="checkBox2-clipPath-30">
          <rect id="checkBox2-innerClipRectangle-31" x="0.75" y="0.75" width="157.5" height="34.5" />
        </clipPath>
        <rect id="checkBox2-29" x="0" y="0" width="159" height="36" stroke="rgb(0, 0, 0)" stroke-width="1.5" fill="rgb(255, 255, 255)" />
        <g x="0" y="0" clip-path="url(#checkBox2-clipPath-30)" />
      </g>
      <g transform="translate(208, 41)">
        <clipPath id="label2-33">
          <rect id="label2-clipPath-34" x="1.5" y="1.5" width="78" height="32" />
        </clipPath>
        <text id="label2-32" x="39" y="19.5" text-anchor="middle" dominant-baseline="middle" font-family="Segoe UI" font-size="25" fill="rgb(0, 0, 0)">label2</text>
      </g>
      <g transform="translate(596, 641)">
        <clipPath id="radioButton1-clipPath-36">
          <rect id="radioButton1-innerClipRectangle-37" x="0.75" y="0.75" width="182.5" height="34.5" />
        </clipPath>
        <rect id="radioButton1-35" x="0" y="0" width="184" height="36" stroke="rgb(0, 0, 0)" stroke-width="1.5" fill="rgb(255, 255, 255)" />
        <g x="0" y="0" clip-path="url(#radioButton1-clipPath-36)" />
      </g>
    </g>
  </g>
</svg>